# xmcd
#
# Track frame offsets: 
#        150
#        11609
#        32140
#        49903
#        71413
#        94292
#        113082
#        133163
#        152323
#        170649
#        189983
#
# Disc length: 2822 seconds
#
# Revision: 0
# Processed by: cddbd v1.5.2PL0 Copyright (c) Steve Scherf et al.
# Submitted via: ExactAudioCopy v0.99pb5
#
DISCID=8d0b040b
DTITLE=Naturally 7 - Both Sides Now
DYEAR=2017
DGENRE=A Cappella
TTITLE0=Jerusalem
TTITLE1=Shape Of My Heart
TTITLE2=I Need Air
TTITLE3=Going Home "Largo From New World Symphony"
TTITLE4=Prince Igor (Here Comes A) Pretty One
TTITLE5=First Time Ever I Saw Your Face
TTITLE6=Both Sides Now
TTITLE7=Hello (feat. Helene Fischer)
TTITLE8=Caught In The Moment (feat. Kevin Olusola)
TTITLE9=Pipes Of Peace
TTITLE10=Bridge Over Troubled Water
EXTD=
EXTT0=
EXTT1=
EXTT2=
EXTT3=
EXTT4=
EXTT5=
EXTT6=
EXTT7=
EXTT8=
EXTT9=
EXTT10=
PLAYORDER=
